<svg width="24" height="25" viewBox="0 0 24 25" fill="none" xmlns="http://www.w3.org/2000/svg">
<path fill-rule="evenodd" clip-rule="evenodd" d="M21 12.875C21 8.11155 17.1384 4.25 12.375 4.25C7.61155 4.25 3.75 8.11155 3.75 12.875C3.75 17.5236 7.42759 21.3133 12.0321 21.4933C11.5712 21.4752 11.1197 21.4208 10.6801 21.3332V14.7659H9.27344V12.421H10.6801V11.0133C10.6801 9.10029 11.4742 7.96289 13.7307 7.96289H15.6093V10.308H14.435C13.5566 10.308 13.4985 10.6356 13.4985 11.2471L13.4954 12.4208H15.6225L15.3735 14.7655H13.4954V21.4276C13.1983 21.4662 12.8996 21.4894 12.6003 21.4971C17.2596 21.3776 21 17.5631 21 12.875Z" fill="white"/>
</svg>
