<svg width="18" height="17" viewBox="0 0 18 17" fill="none" xmlns="http://www.w3.org/2000/svg">
<g clip-path="url(#clip0_1_319)">
<path d="M0.75 2.16482C0.75 1.60979 0.944262 1.15189 1.33277 0.791143C1.72128 0.430376 2.22636 0.25 2.84797 0.25C3.4585 0.25 3.95246 0.427595 4.32987 0.782818C4.71838 1.14913 4.91264 1.62644 4.91264 2.21477C4.91264 2.74759 4.72394 3.19159 4.34652 3.54681C3.95802 3.91313 3.44739 4.09628 2.81467 4.09628H2.79802C2.18749 4.09628 1.69354 3.91313 1.31612 3.54681C0.938701 3.1805 0.75 2.71983 0.75 2.16482ZM0.966458 16.7341V5.61148H4.66289V16.7341H0.966458ZM6.71091 16.7341H10.4073V10.5234C10.4073 10.1349 10.4517 9.83517 10.5405 9.62427C10.6959 9.24685 10.9318 8.92771 11.2482 8.66686C11.5646 8.406 11.9614 8.27557 12.4387 8.27557C13.682 8.27557 14.3036 9.11365 14.3036 10.7898V16.7341H18V10.3569C18 8.71403 17.6115 7.46802 16.8345 6.61884C16.0574 5.76966 15.0307 5.34507 13.7541 5.34507C12.3222 5.34507 11.2066 5.96114 10.4073 7.19329V7.22659H10.3907L10.4073 7.19329V5.61148H6.71091C6.7331 5.96669 6.74421 7.07117 6.74421 8.92495C6.74421 10.7787 6.7331 13.3817 6.71091 16.7341Z" fill="white"/>
</g>
<defs>
<clipPath id="clip0_1_319">
<rect width="17.25" height="16.4841" fill="white" transform="translate(0.75 0.25)"/>
</clipPath>
</defs>
</svg>
