<svg width="18" height="18" viewBox="0 0 18 18" fill="none" xmlns="http://www.w3.org/2000/svg">
<g clip-path="url(#clip0_1_311)">
<path d="M6.50046 8.875C6.50046 7.28725 7.78725 5.99977 9.375 5.99977C10.9628 5.99977 12.2502 7.28725 12.2502 8.875C12.2502 10.4628 10.9628 11.7502 9.375 11.7502C7.78725 11.7502 6.50046 10.4628 6.50046 8.875ZM4.94615 8.875C4.94615 11.3211 6.92893 13.3038 9.375 13.3038C11.8211 13.3038 13.8038 11.3211 13.8038 8.875C13.8038 6.42893 11.8211 4.44615 9.375 4.44615C6.92893 4.44615 4.94615 6.42893 4.94615 8.875ZM12.9441 4.27059C12.9441 4.84187 13.4074 5.30587 13.9794 5.30587C14.5507 5.30587 15.0147 4.84187 15.0147 4.27059C15.0147 3.6993 14.5514 3.23601 13.9794 3.23601C13.4074 3.23601 12.9441 3.6993 12.9441 4.27059ZM5.89017 15.8955C5.04926 15.8572 4.59224 15.7172 4.28848 15.5987C3.88579 15.442 3.59876 15.2553 3.2964 14.9536C2.99473 14.6519 2.80732 14.3649 2.65126 13.9622C2.53283 13.6585 2.39279 13.2014 2.35447 12.3605C2.31267 11.4514 2.30431 11.1783 2.30431 8.875C2.30431 6.57175 2.31337 6.29934 2.35447 5.38947C2.39279 4.54857 2.53352 4.09224 2.65126 3.78778C2.80802 3.3851 2.99473 3.09806 3.2964 2.7957C3.59806 2.49403 3.8851 2.30662 4.28848 2.15057C4.59224 2.03213 5.04926 1.89209 5.89017 1.85378C6.79934 1.81197 7.07245 1.80361 9.375 1.80361C11.6783 1.80361 11.9507 1.81267 12.8605 1.85378C13.7014 1.89209 14.1578 2.03282 14.4622 2.15057C14.8649 2.30662 15.1519 2.49403 15.4543 2.7957C15.756 3.09736 15.9427 3.3851 16.0994 3.78778C16.2179 4.09154 16.3579 4.54857 16.3962 5.38947C16.438 6.29934 16.4464 6.57175 16.4464 8.875C16.4464 11.1776 16.438 11.4507 16.3962 12.3605C16.3579 13.2014 16.2172 13.6585 16.0994 13.9622C15.9427 14.3649 15.756 14.6519 15.4543 14.9536C15.1526 15.2553 14.8649 15.442 14.4622 15.5987C14.1585 15.7172 13.7014 15.8572 12.8605 15.8955C11.9514 15.9373 11.6783 15.9457 9.375 15.9457C7.07245 15.9457 6.79934 15.9373 5.89017 15.8955ZM5.8191 0.302252C4.90087 0.344053 4.27385 0.489661 3.72556 0.702847C3.15845 0.923001 2.67774 1.2184 2.19772 1.69772C1.7184 2.17704 1.423 2.65775 1.20285 3.22556C0.989661 3.77385 0.844053 4.40087 0.802252 5.3191C0.759754 6.23873 0.75 6.53273 0.75 8.875C0.75 11.2173 0.759754 11.5113 0.802252 12.4309C0.844053 13.3491 0.989661 13.9762 1.20285 14.5244C1.423 15.0915 1.7177 15.573 2.19772 16.0523C2.67704 16.5316 3.15775 16.8263 3.72556 17.0472C4.27455 17.2603 4.90087 17.4059 5.8191 17.4477C6.73943 17.4895 7.03273 17.5 9.375 17.5C11.718 17.5 12.0113 17.4902 12.9309 17.4477C13.8491 17.4059 14.4762 17.2603 15.0244 17.0472C15.5915 16.8263 16.0723 16.5316 16.5523 16.0523C17.0316 15.573 17.3263 15.0915 17.5472 14.5244C17.7603 13.9762 17.9066 13.3491 17.9478 12.4309C17.9895 11.5106 17.9993 11.2173 17.9993 8.875C17.9993 6.53273 17.9895 6.23873 17.9478 5.3191C17.9059 4.40087 17.7603 3.77385 17.5472 3.22556C17.3263 2.65845 17.0316 2.17774 16.5523 1.69772C16.073 1.2184 15.5915 0.923001 15.0251 0.702847C14.4762 0.489661 13.8491 0.343356 12.9316 0.302252C12.012 0.26045 11.718 0.25 9.3757 0.25C7.03273 0.25 6.73943 0.259754 5.8191 0.302252Z" fill="white"/>
</g>
<defs>
<clipPath id="clip0_1_311">
<rect width="17.25" height="17.25" fill="white" transform="translate(0.75 0.25)"/>
</clipPath>
</defs>
</svg>
