<svg width="47" height="47" viewBox="0 0 47 47" fill="none" xmlns="http://www.w3.org/2000/svg">
<path d="M13.7087 43.0833H7.83366C6.79489 43.0833 5.79867 42.6706 5.06416 41.9361C4.32964 41.2016 3.91699 40.2054 3.91699 39.1666V25.4583C3.91699 24.4195 4.32964 23.4233 5.06416 22.6888C5.79867 21.9543 6.79489 21.5416 7.83366 21.5416H13.7087M27.417 17.625V9.79163C27.417 8.23348 26.798 6.73915 25.6962 5.63737C24.5945 4.5356 23.1001 3.91663 21.542 3.91663L13.7087 21.5416V43.0833H35.7987C36.7432 43.094 37.6598 42.7629 38.3796 42.1511C39.0993 41.5394 39.5737 40.6881 39.7153 39.7541L42.4178 22.1291C42.503 21.5678 42.4652 20.9946 42.3069 20.4494C42.1486 19.9041 41.8736 19.3998 41.501 18.9713C41.1285 18.5429 40.6672 18.2006 40.1492 17.9681C39.6312 17.7356 39.0689 17.6185 38.5012 17.625H27.417Z" stroke="#F26440" stroke-width="3" stroke-linecap="round" stroke-linejoin="round"/>
</svg>
