<svg width="24" height="25" viewBox="0 0 24 25" fill="none" xmlns="http://www.w3.org/2000/svg">
<path d="M9.17495 19.7744C15.6847 19.7744 19.2446 14.3793 19.2446 9.70095C19.2446 9.54774 19.2415 9.39522 19.2346 9.24334C19.9273 8.74194 20.5251 8.12112 21 7.41C20.3659 7.69203 19.6835 7.88185 18.9676 7.96743C19.6983 7.52913 20.2592 6.83573 20.5239 6.00921C19.8292 6.42149 19.0691 6.71212 18.2766 6.86859C17.6307 6.18041 16.7113 5.75 15.6932 5.75C13.7388 5.75 12.1539 7.33553 12.1539 9.28993C12.1539 9.56779 12.185 9.83797 12.2457 10.0972C9.30425 9.94915 6.696 8.54033 4.95042 6.39814C4.63602 6.93844 4.47066 7.5525 4.4712 8.17762C4.4712 9.40595 5.09599 10.4903 6.04614 11.1247C5.48412 11.1075 4.93443 10.9556 4.4433 10.6819C4.44277 10.6967 4.44277 10.7112 4.44277 10.7271C4.44277 12.4417 5.66268 13.8732 7.28208 14.1976C6.97793 14.2805 6.66409 14.3224 6.34886 14.3222C6.12121 14.3222 5.89934 14.2998 5.68372 14.2584C6.13429 15.6651 7.4408 16.6888 8.98983 16.7174C7.77851 17.6672 6.25262 18.2329 4.5942 18.2329C4.31208 18.2331 4.03019 18.2167 3.75 18.1838C5.31631 19.1881 7.17616 19.7741 9.17512 19.7741" fill="white"/>
</svg>
